<?xml version="1.0" encoding="UTF-8"?>
<svg version="1.1" xmlns="http://www.w3.org/2000/svg" width="364" height="364">
<path d="M0 0 C0.60537598 0.32081543 1.21075195 0.64163086 1.83447266 0.97216797 C10.94699618 5.81235109 19.04976367 11.47103497 27 18 C27.85875732 18.69633545 27.85875732 18.69633545 28.73486328 19.40673828 C47.5931794 34.7671829 62.86179817 53.30336259 74 75 C74.36577148 75.70705078 74.73154297 76.41410156 75.10839844 77.14257812 C97.26886308 120.49758607 100.97492742 171.22026508 86.28125 217.609375 C70.33851632 265.03179142 36.44939472 302.16915874 -7.88671875 324.578125 C-52.05188744 346.03392041 -102.89535728 347.35338646 -149.01757812 331.7109375 C-172.64220718 323.3336871 -193.62244108 309.91485526 -212 293 C-212.5475293 292.49774902 -213.09505859 291.99549805 -213.65917969 291.47802734 C-246.82586871 260.66351597 -267.17986595 215.34263953 -269.12231445 170.15454102 C-270.48659902 119.33803229 -254.56880139 72.65288073 -220 35 C-219.53013672 34.4848584 -219.06027344 33.9697168 -218.57617188 33.43896484 C-206.89619609 20.7883652 -192.94698607 10.47901755 -178 2 C-177.4313623 1.67193359 -176.86272461 1.34386719 -176.27685547 1.00585938 C-155.43370016 -10.95023629 -131.92372479 -18.47653862 -108 -21 C-106.97648438 -21.10957031 -105.95296875 -21.21914063 -104.8984375 -21.33203125 C-68.5237105 -24.6508932 -32.09475304 -17.43783922 0 0 Z " fill="#7100D5" transform="translate(269,22)"/>
<path d="M0 0 C0.60537598 0.32081543 1.21075195 0.64163086 1.83447266 0.97216797 C10.94699618 5.81235109 19.04976367 11.47103497 27 18 C27.85875732 18.69633545 27.85875732 18.69633545 28.73486328 19.40673828 C47.5931794 34.7671829 62.86179817 53.30336259 74 75 C74.36577148 75.70705078 74.73154297 76.41410156 75.10839844 77.14257812 C97.26886308 120.49758607 100.97492742 171.22026508 86.28125 217.609375 C70.33851632 265.03179142 36.44939472 302.16915874 -7.88671875 324.578125 C-52.05188744 346.03392041 -102.89535728 347.35338646 -149.01757812 331.7109375 C-172.64220718 323.3336871 -193.62244108 309.91485526 -212 293 C-212.5475293 292.49774902 -213.09505859 291.99549805 -213.65917969 291.47802734 C-246.82586871 260.66351597 -267.17986595 215.34263953 -269.12231445 170.15454102 C-270.48659902 119.33803229 -254.56880139 72.65288073 -220 35 C-219.53013672 34.4848584 -219.06027344 33.9697168 -218.57617188 33.43896484 C-206.89619609 20.7883652 -192.94698607 10.47901755 -178 2 C-177.4313623 1.67193359 -176.86272461 1.34386719 -176.27685547 1.00585938 C-155.43370016 -10.95023629 -131.92372479 -18.47653862 -108 -21 C-106.97648438 -21.10957031 -105.95296875 -21.21914063 -104.8984375 -21.33203125 C-68.5237105 -24.6508932 -32.09475304 -17.43783922 0 0 Z M-193.1875 66.375 C-198.35706508 72.21347047 -202.83406854 78.41490484 -207 85 C-207.37511719 85.58845703 -207.75023437 86.17691406 -208.13671875 86.78320312 C-228.35050344 119.0355729 -232.85130188 157.50486009 -224.64160156 194.37695312 C-215.8206065 230.43965135 -191.49701518 262.22317121 -160.01953125 281.47265625 C-137.68712136 294.68685889 -113.6330032 301.23010538 -87.75 301.3125 C-86.49517822 301.31797852 -85.24035645 301.32345703 -83.94750977 301.32910156 C-48.72293426 301.06044151 -15.6020715 286.88753614 10 263 C10.89074219 262.19046875 11.78148437 261.3809375 12.69921875 260.546875 C36.85717019 237.64043439 53.06954393 201.82697611 54.21484375 168.61328125 C54.63799661 149.42150337 52.72281114 131.04520517 46 113 C45.74734375 112.3095459 45.4946875 111.6190918 45.234375 110.90771484 C36.16377368 86.48045211 20.72549219 64.89821577 0 49 C-0.85207031 48.33226563 -1.70414063 47.66453125 -2.58203125 46.9765625 C-61.97849708 1.91717463 -143.33839869 13.45353497 -193.1875 66.375 Z " fill="#FB7F00" transform="translate(269,22)"/>
<path d="M0 0 C8.35107583 4.73715997 12.13095293 13.90449371 14.65234375 22.70703125 C15.24291103 24.65834894 15.8351414 26.60916378 16.42871094 28.55957031 C16.90624817 30.1483197 16.90624817 30.1483197 17.39343262 31.76916504 C19.14711194 37.50901771 21.01024099 43.21333821 22.86606598 48.92076874 C23.77602397 51.7211231 24.68188221 54.52279676 25.58778 57.32446671 C27.21601126 62.3599812 28.84641828 67.39479203 30.4765625 72.4296875 C31.63297295 76.00157334 32.78858698 79.57371613 33.94376755 83.14599991 C34.37473561 84.47817945 34.80599766 85.81026392 35.23759842 87.14223862 C38.00175013 95.67277256 40.71229565 104.21848989 43.37690735 112.78051758 C44.20666785 115.44534249 45.04115372 118.10845174 45.8828125 120.76953125 C47.74814586 126.68400287 49.56250389 132.58929242 51.19140625 138.57421875 C52.49725252 143.29158839 54.02027216 147.86700738 55.69140625 152.46875 C56.10036133 153.6045752 56.50931641 154.74040039 56.93066406 155.91064453 C57.7533458 158.17891381 58.5906043 160.44196441 59.44433594 162.69873047 C62.44713729 170.99845335 64.38258423 179.1250838 60.87890625 187.57421875 C57.95631837 192.61387559 53.75484733 195.14308261 48.56640625 197.51171875 C43.20002619 198.69232236 38.47496818 198.91694649 33.25390625 197.07421875 C24.96004194 191.54497588 22.64296796 185.61022642 19.62890625 176.32421875 C19.23509766 175.17824219 18.84128906 174.03226563 18.43554688 172.8515625 C16.39171252 166.75862233 15.25454019 161.7042903 14.44140625 155.19921875 C-1.39859375 155.19921875 -17.23859375 155.19921875 -33.55859375 155.19921875 C-34.54859375 159.15921875 -35.53859375 163.11921875 -36.55859375 167.19921875 C-43.31632407 190.7726966 -43.31632407 190.7726966 -53.55859375 197.19921875 C-59.13701929 199.48130193 -63.73872149 199.59686569 -69.34765625 197.3828125 C-75.17706863 194.26212001 -79.45115156 190.52966192 -81.55859375 184.19921875 C-82.49855339 175.43214502 -81.07310205 167.8803222 -78.19140625 159.64453125 C-77.83779022 158.58225311 -77.48417419 157.51997498 -77.11984253 156.42550659 C-75.99256051 153.05198405 -74.83908628 149.68816946 -73.68359375 146.32421875 C-72.94738685 144.14124195 -72.21300098 141.95765014 -71.48046875 139.7734375 C-70.35735033 136.42695937 -69.23245306 133.08116053 -68.10055542 129.73764038 C-65.24805544 121.30514124 -62.48358928 112.84656613 -59.76171875 104.37109375 C-54.48650388 87.95119607 -49.14424788 71.55376802 -43.77001953 55.16601562 C-42.69910215 51.89959356 -41.63093701 48.63228934 -40.56494141 45.36425781 C-39.24785539 41.32655675 -37.92611825 37.29040622 -36.60108566 33.25530624 C-36.1059474 31.74492733 -35.61239163 30.23402855 -35.12056351 28.72256851 C-27.86455528 6.43545392 -27.86455528 6.43545392 -22.93359375 2.69921875 C-22.34320313 2.23515625 -21.7528125 1.77109375 -21.14453125 1.29296875 C-15.63690692 -2.50539286 -6.23299854 -1.9507858 0 0 Z " fill="#FB7F00" transform="translate(191.55859375,78.80078125)"/>
<path d="M0 0 C0.66 0 1.32 0 2 0 C0.6749685 6.379263 -1.00940308 12.49320156 -3.0546875 18.67578125 C-3.50118149 20.04219002 -3.50118149 20.04219002 -3.95669556 21.436203 C-4.925274 24.39636076 -5.9000236 27.35444401 -6.875 30.3125 C-7.55171946 32.37620794 -8.22814863 34.44001109 -8.90429688 36.50390625 C-13.51209926 50.55215443 -18.1637863 64.5860969 -22.87841797 78.59887695 C-25.43075648 86.19878476 -27.90260814 93.81974387 -30.31640625 101.46484375 C-32.84740586 109.47885161 -35.4844553 117.45130465 -38.18359375 125.41015625 C-39.24520605 128.56648364 -40.30495901 131.72342881 -41.36401367 134.88061523 C-42.08583581 137.02014398 -42.81414011 139.15749566 -43.54858398 141.29272461 C-50.37256183 159.54720746 -50.37256183 159.54720746 -48.875 178.5 C-44.45632343 184.39156876 -39.31186544 187.8296189 -32 189 C-25.68274069 188.76023603 -21.4298502 186.5079467 -17 182 C-9.77690423 171.27845283 -6.83777004 158.06156297 -3 146 C12.84 146 28.68 146 45 146 C50 162 50 162 51.58984375 167.2890625 C52.03824844 168.73462777 52.48742552 170.17995375 52.9375 171.625 C53.15083984 172.36105469 53.36417969 173.09710938 53.58398438 173.85546875 C55.54498847 180.03125068 58.62945139 183.99589001 64.3125 187.375 C69.82144953 188.65615105 75.52940814 188.41176564 81 187 C79.89388002 188.10611998 78.7873709 189.2118519 77.6796875 190.31640625 C76.42982266 191.56917776 75.18597249 192.82795574 73.9453125 194.08984375 C69.83872732 198.24616266 65.68629283 202.25526557 61.23046875 206.03515625 C59.46851245 207.58728237 57.78837518 209.16624848 56.11328125 210.80859375 C55.59934814 211.30375488 55.08541504 211.79891602 54.5559082 212.30908203 C53.54691333 213.28403737 52.5485495 214.27016418 51.56323242 215.26904297 C45.75290485 220.82588994 38.71179191 221.30886079 31.01171875 221.3359375 C29.90647354 221.34843788 29.90647354 221.34843788 28.77890015 221.3611908 C26.4148853 221.38048894 24.05158039 221.38066437 21.6875 221.375 C20.88142303 221.37478851 20.07534607 221.37457703 19.24484253 221.37435913 C2.04830506 221.32920139 -13.1520215 219.17752649 -29 212 C-29.61939453 211.72172363 -30.23878906 211.44344727 -30.87695312 211.15673828 C-45.31332575 204.58214395 -57.53368351 195.96340788 -69 185 C-69.67289063 184.39027344 -70.34578125 183.78054688 -71.0390625 183.15234375 C-90.51730125 164.87694444 -103.54116574 136.42381041 -106 110 C-106.16371094 108.98550781 -106.32742187 107.97101563 -106.49609375 106.92578125 C-107.0127673 101.94402765 -106.85588962 99.16013764 -103.82421875 95.05078125 C-101.08010456 92.12777829 -98.07658184 89.56656025 -95 87 C-93.74910444 85.89684801 -92.49899403 84.79280445 -91.25 83.6875 C-90.62351562 83.15253906 -89.99703125 82.61757812 -89.3515625 82.06640625 C-86.04166878 79.15787838 -82.83858003 76.13916839 -79.625 73.125 C-74.63924871 68.4516989 -69.61897982 63.82726104 -64.5234375 59.2734375 C-61.49121879 56.54162436 -58.49463353 53.77287299 -55.5 51 C-51.69020002 47.47298019 -47.8666241 43.96489692 -44 40.5 C-39.05135091 36.06383237 -34.17165228 31.55566166 -29.29296875 27.04296875 C-26.18217134 24.16605214 -23.06197582 21.29954861 -19.9375 18.4375 C-18.96941406 17.550625 -18.00132812 16.66375 -17.00390625 15.75 C-14.88726405 13.81190354 -12.7698642 11.87463681 -10.65234375 9.9375 C-10.10392822 9.43549072 -9.5555127 8.93348145 -8.99047852 8.41625977 C-7.93794814 7.45280556 -6.88506829 6.48973295 -5.83178711 5.52709961 C-3.85292457 3.71541742 -1.89741159 1.89741159 0 0 Z " fill="#6800C4" transform="translate(161,88)"/>
<path d="M0 0 C1.68093769 1.51259266 3.34533426 3.04388237 4.98828125 4.59765625 C7.14806463 6.69247711 7.14806463 6.69247711 10.11328125 8.9140625 C14.66897086 12.98510428 18.30590804 17.72696433 22.05078125 22.5390625 C22.72367188 23.39628906 23.3965625 24.25351563 24.08984375 25.13671875 C46.25892831 54.41580852 55.86544832 91.69155876 51.5859375 128.15234375 C50.97607529 132.34113422 50.07784843 136.43454562 49.05078125 140.5390625 C48.86273926 141.30605469 48.67469727 142.07304687 48.48095703 142.86328125 C39.33882083 178.99544724 17.00557607 210.8597054 -14.96972656 230.37792969 C-27.96132557 237.99855683 -41.60910668 243.57450898 -56.19921875 247.2890625 C-57.02711914 247.50006592 -57.85501953 247.71106934 -58.70800781 247.9284668 C-92.99785125 256.27488594 -130.81362323 249.51357574 -160.99267578 231.73486328 C-171.3103387 225.42890958 -180.26109752 217.90917051 -188.94921875 209.5390625 C-189.65433594 208.89710938 -190.35945313 208.25515625 -191.0859375 207.59375 C-205.9795048 193.63669504 -216.14986034 174.56058051 -222.94921875 155.5390625 C-223.32820313 154.5078125 -223.7071875 153.4765625 -224.09765625 152.4140625 C-235.58944788 118.54351876 -231.87267631 80.0775051 -216.76757812 48.03222656 C-209.53921216 33.54630091 -200.01685558 21.32074041 -188.94921875 9.5390625 C-188.42457031 8.94996094 -187.89992187 8.36085937 -187.359375 7.75390625 C-139.67721083 -43.56811779 -52.14619529 -43.51271925 0 0 Z M-120.94921875 -14.4609375 C-122.79 -13.95046875 -122.79 -13.95046875 -124.66796875 -13.4296875 C-158.92610787 -2.95405818 -186.34563855 20.49786231 -203.19921875 51.9140625 C-207.36218518 59.91423236 -210.6608024 67.78540483 -212.94921875 76.5390625 C-213.26632813 77.72113281 -213.5834375 78.90320313 -213.91015625 80.12109375 C-218.09377735 99.06253426 -218.31407079 122.92589263 -212.94921875 141.5390625 C-212.76649414 142.21404785 -212.58376953 142.8890332 -212.39550781 143.58447266 C-207.22570587 162.37487758 -198.05434157 180.07641941 -184.94921875 194.5390625 C-184.44664551 195.09529297 -183.94407227 195.65152344 -183.42626953 196.22460938 C-163.76956705 217.61482597 -134.45236347 234.80373783 -105.00823975 236.66152954 C-100.52663442 236.84257854 -96.04727829 236.86728701 -91.5625 236.85473633 C-89.21696994 236.85158634 -86.87271803 236.87507906 -84.52734375 236.90039062 C-52.03548394 237.03540664 -21.45672264 222.66213607 1.58056641 200.03662109 C26.79053875 174.36392884 38.376302 142.53719363 38.43139648 106.97729492 C38.33053946 99.01289676 37.4946409 91.36871355 36.05078125 83.5390625 C35.84799561 82.43630981 35.84799561 82.43630981 35.64111328 81.3112793 C31.43645124 60.15538965 20.86457711 41.8696576 7.05078125 25.5390625 C6.50035156 24.85457031 5.94992187 24.17007813 5.3828125 23.46484375 C-6.52977906 9.0622093 -23.19765081 -0.71188118 -39.94921875 -8.4609375 C-40.80902344 -8.87214844 -41.66882813 -9.28335938 -42.5546875 -9.70703125 C-56.89277065 -16.0493503 -73.36210911 -17.6976003 -88.82421875 -17.7109375 C-89.52240723 -17.71161224 -90.2205957 -17.71228699 -90.93994141 -17.71298218 C-101.23749415 -17.69714024 -110.96246461 -17.30120703 -120.94921875 -14.4609375 Z " fill="#9B24FC" transform="translate(270.94921875,72.4609375)"/>
<path d="M0 0 C0.72912598 0.09514893 1.45825195 0.19029785 2.20947266 0.28833008 C47.34378914 6.71360215 90.92991307 31.4513826 118.66796875 67.76953125 C125.25392598 76.60213979 131.27522349 85.62514755 136.3125 95.4375 C136.67827148 96.14455078 137.04404297 96.85160156 137.42089844 97.58007812 C147.9979592 118.27317101 154.16427966 140.02895328 156.625 163.125 C156.71362305 163.93831787 156.80224609 164.75163574 156.89355469 165.58959961 C157.71789944 174.44214634 156.95892506 181.30016495 151.3125 188.4375 C146.94195145 192.58952112 143.00804087 194.51297609 137 194.75 C131.49133175 194.58528899 126.73740006 193.61507101 122.55078125 189.85546875 C117.88771182 184.67302597 116.18756236 179.88347987 115.41796875 172.94921875 C115.26996826 171.69326904 115.12196777 170.43731934 114.96948242 169.14331055 C114.89345795 168.48664398 114.81743347 167.82997742 114.73910522 167.15341187 C113.36030171 155.45654739 111.62860504 144.45018027 107.3125 133.4375 C106.79294479 132.03646722 106.27341463 130.63542515 105.75390625 129.234375 C99.95238422 114.02926829 91.58760369 100.98852243 81.3125 88.4375 C80.64476562 87.61507812 79.97703125 86.79265625 79.2890625 85.9453125 C74.24200322 79.99184258 68.48418961 75.18953098 62.3125 70.4375 C61.03246094 69.43396484 61.03246094 69.43396484 59.7265625 68.41015625 C40.25567661 53.64619623 17.74208347 44.73888434 -6.4375 41.4375 C-13.27989958 40.39521628 -18.08481839 37.49759377 -22.625 32.3125 C-26.74533407 26.56900402 -26.2777423 20.26744659 -25.6875 13.4375 C-23.43354316 8.47879495 -19.32899193 4.33952508 -14.6875 1.4375 C-9.57783505 -0.46020008 -5.3329324 -0.73647682 0 0 Z " fill="#FAC100" transform="translate(206.6875,1.5625)"/>
<path d="M0 0 C0.33 0 0.66 0 1 0 C2.6129641 49.10579582 -16.42155968 94.82406276 -49.47216797 130.59326172 C-80.38266894 163.5692823 -125.87241197 184.56618151 -171.08447266 186.10498047 C-182.42711056 186.36937379 -193.77675982 186.41153464 -205.0625 185.125 C-206.09697266 185.00753418 -206.09697266 185.00753418 -207.15234375 184.88769531 C-211.73231057 184.26768943 -211.73231057 184.26768943 -214 182 C-198.30230101 167.21210056 -198.30230101 167.21210056 -190.5234375 160.26953125 C-187.30310613 157.37322703 -184.11891624 154.43892365 -180.9375 151.5 C-180.36427002 150.97059814 -179.79104004 150.44119629 -179.20043945 149.89575195 C-176.56812989 147.48150905 -176.56812989 147.48150905 -174 145 C-171.92475682 144.68466531 -169.84828523 144.37598854 -167.76733398 144.10083008 C-135.80167869 139.85666056 -107.73682035 128.0956975 -84 106 C-82.77410156 104.89591797 -82.77410156 104.89591797 -81.5234375 103.76953125 C-54.03988694 77.88837851 -41.92827489 39.6879669 -40 3 C-38.70152744 4.94770884 -37.44806155 6.92646812 -36.25 8.9375 C-32.99989258 13.36125732 -29.37729353 15.92858437 -24 17 C-17.44848036 17.75120808 -12.45329789 16.78012695 -7 13 C-3.11203864 9.21711868 -1.70922837 5.04222368 0 0 Z " fill="#FB7F00" transform="translate(363,178)"/>
<path d="M0 0 C0.33 0 0.66 0 1 0 C1.13462646 0.95700806 1.13462646 0.95700806 1.27197266 1.93334961 C6.72314248 39.73514187 23.4560163 74.54695126 54.37646484 98.2980957 C82.47319665 119.13449142 113.41465287 127.17009839 148 128 C144.21749127 132.58210448 140.28931829 136.77629758 135.875 140.75 C135.31586914 141.25950195 134.75673828 141.76900391 134.18066406 142.29394531 C133.02454061 143.34727332 131.86698831 144.39903518 130.70800781 145.44921875 C128.55003026 147.40854885 126.40586422 149.382531 124.26416016 151.35961914 C123.26092598 152.28084111 122.25281959 153.19678725 121.23974609 154.10717773 C118.9435609 156.17328806 116.7622944 158.25884385 114.671875 160.53515625 C112.50985442 162.80216704 110.7150453 164.43962295 108 166 C100.09381708 165.99057493 91.9883695 163.01778141 84.5625 160.5 C83.53334473 160.15251709 82.50418945 159.80503418 81.44384766 159.44702148 C54.7544877 150.16082788 32.3566195 135.37765902 12 116 C10.86498047 114.96166016 10.86498047 114.96166016 9.70703125 113.90234375 C-10.0439225 95.23067709 -28.31242008 65.74886071 -34 39 C-33.81656802 34.30131928 -31.76080386 32.30116522 -28.4375 29.125 C-27.52355469 28.24714844 -26.60960937 27.36929688 -25.66796875 26.46484375 C-22.93804142 23.94275862 -20.17046394 21.48080706 -17.35546875 19.0546875 C-14.05699346 16.17741055 -10.80064582 13.25741825 -7.5625 10.3125 C-6.9344043 9.75328857 -6.30630859 9.19407715 -5.65917969 8.61791992 C-5.07168945 8.08013916 -4.48419922 7.5423584 -3.87890625 6.98828125 C-3.3485376 6.50915283 -2.81816895 6.03002441 -2.27172852 5.53637695 C-0.78034851 3.73463874 -0.40271537 2.28143939 0 0 Z " fill="#D6651A" transform="translate(41,195)"/>
<path d="M0 0 C0.66 0.33 1.32 0.66 2 1 C2.44851421 2.73261652 2.80444649 4.48921312 3.125 6.25 C5.2675127 16.21157965 9.18834197 25.57629224 13 35 C13.26232422 35.6511377 13.52464844 36.30227539 13.79492188 36.97314453 C21.66948246 55.97548271 35.75478131 71.45624461 53.96484375 80.9296875 C56 82 56 82 58.265625 83.44921875 C71.09745313 90.72669842 86.4951448 92.58949653 100.85546875 94.61450195 C103 95 103 95 105 96 C105.33 95.34 105.66 94.68 106 94 C109.52258138 103.01088898 112.47665666 112.03772875 108.4375 121.375 C105.51491212 126.41465684 101.31344108 128.94386386 96.125 131.3125 C90.75861994 132.49310361 86.03356193 132.71772774 80.8125 130.875 C72.51863569 125.34575713 70.20156171 119.41100767 67.1875 110.125 C66.79369141 108.97902344 66.39988281 107.83304687 65.99414062 106.65234375 C63.95030627 100.55940358 62.81313394 95.50507155 62 89 C46.16 89 30.32 89 14 89 C13.01 92.96 12.02 96.92 11 101 C4.24226968 124.57347785 4.24226968 124.57347785 -6 131 C-11.57842554 133.28208318 -16.18012774 133.39764694 -21.7890625 131.18359375 C-27.61847488 128.06290126 -31.89255781 124.33044317 -34 118 C-34.93994865 109.23302878 -33.51474509 101.68101469 -30.6328125 93.4453125 C-30.28236877 92.39291382 -29.93192505 91.34051514 -29.57086182 90.25622559 C-28.43998755 86.87288092 -27.28271302 83.49924348 -26.125 80.125 C-25.33733644 77.78241618 -24.55170353 75.43914865 -23.76806641 73.09521484 C-22.2240887 68.48251383 -20.67156111 63.87285211 -19.11132812 59.265625 C-16.45616247 51.40960111 -13.90210208 43.52296132 -11.375 35.625 C-10.98989258 34.42818604 -10.60478516 33.23137207 -10.20800781 31.99829102 C-6.77892139 21.3406243 -3.38210213 10.67266004 0 0 Z " fill="#FA5801" transform="translate(144,145)"/>
<path d="M0 0 C0.33 0 0.66 0 1 0 C1.01458252 0.73412109 1.02916504 1.46824219 1.04418945 2.22460938 C1.81774669 37.14675502 8.92609638 69.34853706 33 96 C33.47018555 96.52384277 33.94037109 97.04768555 34.42480469 97.58740234 C53.56114809 118.55705149 83.30415316 135.55458996 111.99810791 137.10818481 C116.60745176 137.24964286 121.21520921 137.24186296 125.82617188 137.20581055 C128.25922042 137.18743035 130.69188883 137.18530239 133.125 137.18554688 C134.69271159 137.18063414 136.26042063 137.1748069 137.828125 137.16796875 C138.54494446 137.16685593 139.26176392 137.1657431 140.00030518 137.16459656 C144.43727597 137.12325488 148.63407233 136.7149367 153 136 C152.26265625 136.70511719 151.5253125 137.41023437 150.765625 138.13671875 C147.97073413 140.87836269 147.97073413 140.87836269 145.984375 143.89453125 C142.68285587 148.20613054 139.85639173 151.38433395 134.38574219 152.56347656 C101.13121698 155.83896402 65.65124814 142.76639162 40 122 C35.84878777 118.48886433 31.9143342 114.77105696 28 111 C27.29488281 110.35804688 26.58976562 109.71609375 25.86328125 109.0546875 C4.54870611 89.08037976 -9.65313653 57.65475415 -12.28515625 28.8828125 C-12 26 -12 26 -10.35546875 23.98828125 C-9.64003906 23.43527344 -8.92460938 22.88226563 -8.1875 22.3125 C-7.47980469 21.75175781 -6.77210937 21.19101563 -6.04296875 20.61328125 C-4.81486721 19.64348022 -3.56596039 18.69814518 -2.28125 17.8046875 C-0.15744285 14.81322743 -0.420978 11.36128042 -0.3125 7.8125 C-0.27833984 7.06291016 -0.24417969 6.31332031 -0.20898438 5.54101562 C-0.12665706 3.69453162 -0.06164719 1.84729006 0 0 Z " fill="#8A1DE4" transform="translate(54,171)"/>
<path d="M0 0 C3.5625 1.25 3.5625 1.25 4.73046875 2.76953125 C6.95574461 7.519814 8.32516952 12.63592108 9.87304688 17.63867188 C12.14337434 24.93843067 14.46999999 32.21820249 16.82743835 39.4903717 C17.493693 41.54569652 18.15888381 43.6013633 18.82385254 45.65710449 C20.23585164 50.02168919 21.64907335 54.38587742 23.0625 58.75 C24.7047981 63.82079038 26.34654563 68.89175776 27.98698425 73.96315002 C28.6315003 75.95477087 29.27696211 77.94608335 29.92248535 79.93737793 C32.27131321 87.1974978 34.58341843 94.46682103 36.83119965 101.75885773 C38.08722849 105.81222567 39.44737241 109.81660866 40.875 113.8125 C42.33877094 118.20978739 43.34637093 121.6447583 42.5625 126.25 C40.463275 128.66022129 39.13164635 129.15282867 36 129.6875 C33.5625 129.25 33.5625 129.25 32.01112366 127.49957275 C30.5717576 125.26437615 29.74472071 123.34679155 28.94702148 120.81933594 C28.66434418 119.93726471 28.38166687 119.05519348 28.09042358 118.14639282 C27.79116974 117.18542694 27.49191589 116.22446106 27.18359375 115.234375 C26.85904205 114.21467621 26.53449036 113.19497742 26.20010376 112.14437866 C25.1262295 108.76514739 24.06319635 105.38260445 23 102 C22.25335717 99.64410389 21.50586678 97.28847624 20.75756836 94.93310547 C19.38068517 90.59811108 18.00576131 86.26250914 16.63338947 81.92608452 C13.94996457 73.45041814 11.23485192 64.98516064 8.5078125 56.5234375 C8.30179728 55.88400711 8.09578205 55.24457672 7.88352394 54.58576965 C6.06887408 48.95364404 4.25286677 43.3219562 2.43673706 37.69030762 C1.32262044 34.23399236 0.20998444 30.77720365 -0.90234375 27.3203125 C-1.23181 26.29964691 -1.56127625 25.27898132 -1.90072632 24.22738647 C-7.01430003 8.32584024 -7.01430003 8.32584024 -6.4375 3.25 C-4.72583993 0.12873752 -3.57387444 0.25991814 0 0 Z " fill="#F8BE03" transform="translate(197.4375,87.75)"/>
<path d="M0 0 C2 1 2 1 2.62255859 2.78735352 C2.79609863 3.56006592 2.96963867 4.33277832 3.1484375 5.12890625 C3.34735596 5.99233643 3.54627441 6.8557666 3.7512207 7.74536133 C3.95706787 8.67501709 4.16291504 9.60467285 4.375 10.5625 C4.81299944 12.47414241 5.25181113 14.38559889 5.69140625 16.296875 C5.90941895 17.25400391 6.12743164 18.21113281 6.35205078 19.19726562 C7.28863511 23.24850453 8.29352425 27.28133044 9.3125 31.3125 C9.869375 33.519375 10.42625 35.72625 11 38 C4.4 38 -2.2 38 -9 38 C-7.87496209 28.99969676 -7.87496209 28.99969676 -6.9140625 25.44921875 C-6.70676514 24.67296143 -6.49946777 23.8967041 -6.28588867 23.09692383 C-6.06779541 22.30181396 -5.84970215 21.5067041 -5.625 20.6875 C-5.29109253 19.44552856 -5.29109253 19.44552856 -4.95043945 18.1784668 C-4.30549523 15.78419616 -3.65361119 13.39191679 -3 11 C-2.67128906 9.78570312 -2.34257812 8.57140625 -2.00390625 7.3203125 C-1.34118678 4.87871445 -0.67401227 2.43849968 0 0 Z " fill="#6D04BD" transform="translate(181,155)"/>
</svg>
